<mxfile host="app.diagrams.net" modified="2020-09-15T20:04:15.065Z" agent="5.0 (Windows NT 10.0; Win64; x64) AppleWebKit/537.36 (KHTML, like Gecko) Chrome/84.0.4147.135 YaBrowser/20.8.3.115 Yowser/2.5 Safari/537.36" etag="BYpf-VpU3dd8GYsMDn7w" version="13.7.1" type="github">
  <diagram id="cs5tLgP3HtTS0rrws47s" name="Page-1">
    <mxGraphModel dx="1374" dy="789" grid="1" gridSize="10" guides="1" tooltips="1" connect="1" arrows="1" fold="1" page="1" pageScale="1" pageWidth="827" pageHeight="1169" math="0" shadow="0">
      <root>
        <mxCell id="0" />
        <mxCell id="1" parent="0" />
        <mxCell id="dc0CeyLBmL446_oW5Jyz-11" value="Instances" style="text;align=center;fontStyle=1;verticalAlign=middle;spacingLeft=3;spacingRight=3;strokeColor=none;rotatable=0;points=[[0,0.5],[1,0.5]];portConstraint=eastwest;" vertex="1" parent="1">
          <mxGeometry x="40" y="220" width="80" height="26" as="geometry" />
        </mxCell>
        <mxCell id="dc0CeyLBmL446_oW5Jyz-12" value="Class Definition" style="text;align=center;fontStyle=1;verticalAlign=middle;spacingLeft=3;spacingRight=3;strokeColor=none;rotatable=0;points=[[0,0.5],[1,0.5]];portConstraint=eastwest;" vertex="1" parent="1">
          <mxGeometry x="50" y="60" width="80" height="26" as="geometry" />
        </mxCell>
        <mxCell id="dc0CeyLBmL446_oW5Jyz-3" value="Circle" style="swimlane;fontStyle=1;align=center;verticalAlign=top;childLayout=stackLayout;horizontal=1;startSize=26;horizontalStack=0;resizeParent=1;resizeParentMax=0;resizeLast=0;collapsible=1;marginBottom=0;" vertex="1" parent="1">
          <mxGeometry x="40" y="86" width="160" height="120" as="geometry" />
        </mxCell>
        <mxCell id="dc0CeyLBmL446_oW5Jyz-4" value="-radius:double=10.0" style="text;strokeColor=none;fillColor=none;align=left;verticalAlign=top;spacingLeft=4;spacingRight=4;overflow=hidden;rotatable=0;points=[[0,0.5],[1,0.5]];portConstraint=eastwest;" vertex="1" parent="dc0CeyLBmL446_oW5Jyz-3">
          <mxGeometry y="26" width="160" height="26" as="geometry" />
        </mxCell>
        <mxCell id="dc0CeyLBmL446_oW5Jyz-5" value="" style="line;strokeWidth=1;fillColor=none;align=left;verticalAlign=middle;spacingTop=-1;spacingLeft=3;spacingRight=3;rotatable=0;labelPosition=right;points=[];portConstraint=eastwest;" vertex="1" parent="dc0CeyLBmL446_oW5Jyz-3">
          <mxGeometry y="52" width="160" height="8" as="geometry" />
        </mxCell>
        <mxCell id="dc0CeyLBmL446_oW5Jyz-6" value="+getRadius():double&#xa;+getLength():double&#xa;+getArea():double" style="text;strokeColor=none;fillColor=none;align=left;verticalAlign=top;spacingLeft=4;spacingRight=4;overflow=hidden;rotatable=0;points=[[0,0.5],[1,0.5]];portConstraint=eastwest;" vertex="1" parent="dc0CeyLBmL446_oW5Jyz-3">
          <mxGeometry y="60" width="160" height="60" as="geometry" />
        </mxCell>
        <mxCell id="dc0CeyLBmL446_oW5Jyz-7" value="c1:Circle" style="swimlane;fontStyle=1;align=center;verticalAlign=top;childLayout=stackLayout;horizontal=1;startSize=26;horizontalStack=0;resizeParent=1;resizeParentMax=0;resizeLast=0;collapsible=1;marginBottom=0;" vertex="1" parent="1">
          <mxGeometry x="40" y="246" width="160" height="120" as="geometry" />
        </mxCell>
        <mxCell id="dc0CeyLBmL446_oW5Jyz-8" value="-radius=20.0" style="text;strokeColor=none;fillColor=none;align=left;verticalAlign=top;spacingLeft=4;spacingRight=4;overflow=hidden;rotatable=0;points=[[0,0.5],[1,0.5]];portConstraint=eastwest;" vertex="1" parent="dc0CeyLBmL446_oW5Jyz-7">
          <mxGeometry y="26" width="160" height="24" as="geometry" />
        </mxCell>
        <mxCell id="dc0CeyLBmL446_oW5Jyz-9" value="" style="line;strokeWidth=1;fillColor=none;align=left;verticalAlign=middle;spacingTop=-1;spacingLeft=3;spacingRight=3;rotatable=0;labelPosition=right;points=[];portConstraint=eastwest;" vertex="1" parent="dc0CeyLBmL446_oW5Jyz-7">
          <mxGeometry y="50" width="160" height="8" as="geometry" />
        </mxCell>
        <mxCell id="dc0CeyLBmL446_oW5Jyz-10" value="+getRadius()&#xa;+getLength()&#xa;+getArea()" style="text;strokeColor=none;fillColor=none;align=left;verticalAlign=top;spacingLeft=4;spacingRight=4;overflow=hidden;rotatable=0;points=[[0,0.5],[1,0.5]];portConstraint=eastwest;" vertex="1" parent="dc0CeyLBmL446_oW5Jyz-7">
          <mxGeometry y="58" width="160" height="62" as="geometry" />
        </mxCell>
        <mxCell id="dc0CeyLBmL446_oW5Jyz-13" value="c2:Circle" style="swimlane;fontStyle=1;align=center;verticalAlign=top;childLayout=stackLayout;horizontal=1;startSize=26;horizontalStack=0;resizeParent=1;resizeParentMax=0;resizeLast=0;collapsible=1;marginBottom=0;" vertex="1" parent="1">
          <mxGeometry x="240" y="246" width="160" height="120" as="geometry" />
        </mxCell>
        <mxCell id="dc0CeyLBmL446_oW5Jyz-14" value="-radius=10.0" style="text;strokeColor=none;fillColor=none;align=left;verticalAlign=top;spacingLeft=4;spacingRight=4;overflow=hidden;rotatable=0;points=[[0,0.5],[1,0.5]];portConstraint=eastwest;" vertex="1" parent="dc0CeyLBmL446_oW5Jyz-13">
          <mxGeometry y="26" width="160" height="26" as="geometry" />
        </mxCell>
        <mxCell id="dc0CeyLBmL446_oW5Jyz-15" value="" style="line;strokeWidth=1;fillColor=none;align=left;verticalAlign=middle;spacingTop=-1;spacingLeft=3;spacingRight=3;rotatable=0;labelPosition=right;points=[];portConstraint=eastwest;" vertex="1" parent="dc0CeyLBmL446_oW5Jyz-13">
          <mxGeometry y="52" width="160" height="8" as="geometry" />
        </mxCell>
        <mxCell id="dc0CeyLBmL446_oW5Jyz-16" value="+getRadius()&#xa;+getLength()&#xa;+getArea()" style="text;strokeColor=none;fillColor=none;align=left;verticalAlign=top;spacingLeft=4;spacingRight=4;overflow=hidden;rotatable=0;points=[[0,0.5],[1,0.5]];portConstraint=eastwest;" vertex="1" parent="dc0CeyLBmL446_oW5Jyz-13">
          <mxGeometry y="60" width="160" height="60" as="geometry" />
        </mxCell>
        <mxCell id="dc0CeyLBmL446_oW5Jyz-21" value="&lt;font style=&quot;font-size: 17px&quot;&gt;&lt;b&gt;Class.java&lt;/b&gt;&lt;/font&gt;" style="text;html=1;strokeColor=none;fillColor=none;align=center;verticalAlign=middle;whiteSpace=wrap;rounded=0;" vertex="1" parent="1">
          <mxGeometry x="40" y="10" width="100" height="30" as="geometry" />
        </mxCell>
        <mxCell id="dc0CeyLBmL446_oW5Jyz-22" value="&lt;font style=&quot;font-size: 17px&quot;&gt;&lt;b&gt;Human.java&lt;/b&gt;&lt;/font&gt;" style="text;html=1;strokeColor=none;fillColor=none;align=center;verticalAlign=middle;whiteSpace=wrap;rounded=0;" vertex="1" parent="1">
          <mxGeometry x="40" y="400" width="120" height="40" as="geometry" />
        </mxCell>
        <mxCell id="dc0CeyLBmL446_oW5Jyz-23" value="Human" style="swimlane;fontStyle=1;align=center;verticalAlign=top;childLayout=stackLayout;horizontal=1;startSize=26;horizontalStack=0;resizeParent=1;resizeParentMax=0;resizeLast=0;collapsible=1;marginBottom=0;" vertex="1" parent="1">
          <mxGeometry x="40" y="480" width="170" height="200" as="geometry" />
        </mxCell>
        <mxCell id="dc0CeyLBmL446_oW5Jyz-24" value="-name:String&#xa;-age:int&#xa;-race:String" style="text;strokeColor=none;fillColor=none;align=left;verticalAlign=top;spacingLeft=4;spacingRight=4;overflow=hidden;rotatable=0;points=[[0,0.5],[1,0.5]];portConstraint=eastwest;" vertex="1" parent="dc0CeyLBmL446_oW5Jyz-23">
          <mxGeometry y="26" width="170" height="54" as="geometry" />
        </mxCell>
        <mxCell id="dc0CeyLBmL446_oW5Jyz-25" value="" style="line;strokeWidth=1;fillColor=none;align=left;verticalAlign=middle;spacingTop=-1;spacingLeft=3;spacingRight=3;rotatable=0;labelPosition=right;points=[];portConstraint=eastwest;" vertex="1" parent="dc0CeyLBmL446_oW5Jyz-23">
          <mxGeometry y="80" width="170" height="8" as="geometry" />
        </mxCell>
        <mxCell id="dc0CeyLBmL446_oW5Jyz-26" value="+setName(name:String):void&#xa;+setRace(race:String):void&#xa;+setAge(age:int):void&#xa;+getName()&#xa;+getRace()&#xa;+getAge()" style="text;strokeColor=none;fillColor=none;align=left;verticalAlign=top;spacingLeft=4;spacingRight=4;overflow=hidden;rotatable=0;points=[[0,0.5],[1,0.5]];portConstraint=eastwest;" vertex="1" parent="dc0CeyLBmL446_oW5Jyz-23">
          <mxGeometry y="88" width="170" height="112" as="geometry" />
        </mxCell>
        <mxCell id="dc0CeyLBmL446_oW5Jyz-27" value="&lt;span style=&quot;font-weight: 700&quot;&gt;Class Definition&lt;/span&gt;" style="text;html=1;align=center;verticalAlign=middle;resizable=0;points=[];autosize=1;" vertex="1" parent="1">
          <mxGeometry x="35" y="460" width="110" height="20" as="geometry" />
        </mxCell>
        <mxCell id="dc0CeyLBmL446_oW5Jyz-28" value="Head" style="swimlane;fontStyle=1;align=center;verticalAlign=top;childLayout=stackLayout;horizontal=1;startSize=26;horizontalStack=0;resizeParent=1;resizeParentMax=0;resizeLast=0;collapsible=1;marginBottom=0;" vertex="1" parent="1">
          <mxGeometry x="240" y="480" width="160" height="200" as="geometry" />
        </mxCell>
        <mxCell id="dc0CeyLBmL446_oW5Jyz-29" value="-color:String&#xa;-shape:String" style="text;strokeColor=none;fillColor=none;align=left;verticalAlign=top;spacingLeft=4;spacingRight=4;overflow=hidden;rotatable=0;points=[[0,0.5],[1,0.5]];portConstraint=eastwest;" vertex="1" parent="dc0CeyLBmL446_oW5Jyz-28">
          <mxGeometry y="26" width="160" height="34" as="geometry" />
        </mxCell>
        <mxCell id="dc0CeyLBmL446_oW5Jyz-30" value="" style="line;strokeWidth=1;fillColor=none;align=left;verticalAlign=middle;spacingTop=-1;spacingLeft=3;spacingRight=3;rotatable=0;labelPosition=right;points=[];portConstraint=eastwest;" vertex="1" parent="dc0CeyLBmL446_oW5Jyz-28">
          <mxGeometry y="60" width="160" height="8" as="geometry" />
        </mxCell>
        <mxCell id="dc0CeyLBmL446_oW5Jyz-31" value="+Head(c:String,s:String)&#xa;+setColor():void&#xa;+setShape():void&#xa;+getColor()&#xa;+getShape()" style="text;strokeColor=none;fillColor=none;align=left;verticalAlign=top;spacingLeft=4;spacingRight=4;overflow=hidden;rotatable=0;points=[[0,0.5],[1,0.5]];portConstraint=eastwest;" vertex="1" parent="dc0CeyLBmL446_oW5Jyz-28">
          <mxGeometry y="68" width="160" height="132" as="geometry" />
        </mxCell>
        <mxCell id="dc0CeyLBmL446_oW5Jyz-32" value="Leg" style="swimlane;fontStyle=1;align=center;verticalAlign=top;childLayout=stackLayout;horizontal=1;startSize=26;horizontalStack=0;resizeParent=1;resizeParentMax=0;resizeLast=0;collapsible=1;marginBottom=0;" vertex="1" parent="1">
          <mxGeometry x="440" y="480" width="160" height="200" as="geometry" />
        </mxCell>
        <mxCell id="dc0CeyLBmL446_oW5Jyz-33" value="-length:int&#xa;-toes:int" style="text;strokeColor=none;fillColor=none;align=left;verticalAlign=top;spacingLeft=4;spacingRight=4;overflow=hidden;rotatable=0;points=[[0,0.5],[1,0.5]];portConstraint=eastwest;" vertex="1" parent="dc0CeyLBmL446_oW5Jyz-32">
          <mxGeometry y="26" width="160" height="34" as="geometry" />
        </mxCell>
        <mxCell id="dc0CeyLBmL446_oW5Jyz-34" value="" style="line;strokeWidth=1;fillColor=none;align=left;verticalAlign=middle;spacingTop=-1;spacingLeft=3;spacingRight=3;rotatable=0;labelPosition=right;points=[];portConstraint=eastwest;" vertex="1" parent="dc0CeyLBmL446_oW5Jyz-32">
          <mxGeometry y="60" width="160" height="8" as="geometry" />
        </mxCell>
        <mxCell id="dc0CeyLBmL446_oW5Jyz-35" value="+Leg(l:int,t:int)&#xa;+setLength():void&#xa;+setToes():void&#xa;+getLength()&#xa;+getToes()" style="text;strokeColor=none;fillColor=none;align=left;verticalAlign=top;spacingLeft=4;spacingRight=4;overflow=hidden;rotatable=0;points=[[0,0.5],[1,0.5]];portConstraint=eastwest;" vertex="1" parent="dc0CeyLBmL446_oW5Jyz-32">
          <mxGeometry y="68" width="160" height="132" as="geometry" />
        </mxCell>
        <mxCell id="dc0CeyLBmL446_oW5Jyz-36" value="Hand" style="swimlane;fontStyle=1;align=center;verticalAlign=top;childLayout=stackLayout;horizontal=1;startSize=26;horizontalStack=0;resizeParent=1;resizeParentMax=0;resizeLast=0;collapsible=1;marginBottom=0;" vertex="1" parent="1">
          <mxGeometry x="640" y="480" width="160" height="200" as="geometry" />
        </mxCell>
        <mxCell id="dc0CeyLBmL446_oW5Jyz-37" value="-skin:String&#xa;-fingers:int" style="text;strokeColor=none;fillColor=none;align=left;verticalAlign=top;spacingLeft=4;spacingRight=4;overflow=hidden;rotatable=0;points=[[0,0.5],[1,0.5]];portConstraint=eastwest;" vertex="1" parent="dc0CeyLBmL446_oW5Jyz-36">
          <mxGeometry y="26" width="160" height="34" as="geometry" />
        </mxCell>
        <mxCell id="dc0CeyLBmL446_oW5Jyz-38" value="" style="line;strokeWidth=1;fillColor=none;align=left;verticalAlign=middle;spacingTop=-1;spacingLeft=3;spacingRight=3;rotatable=0;labelPosition=right;points=[];portConstraint=eastwest;" vertex="1" parent="dc0CeyLBmL446_oW5Jyz-36">
          <mxGeometry y="60" width="160" height="8" as="geometry" />
        </mxCell>
        <mxCell id="dc0CeyLBmL446_oW5Jyz-39" value="+Hand(s:String,f:int)&#xa;+setSkin():void&#xa;+setFingers():void&#xa;+getSkin()&#xa;+getFingers()" style="text;strokeColor=none;fillColor=none;align=left;verticalAlign=top;spacingLeft=4;spacingRight=4;overflow=hidden;rotatable=0;points=[[0,0.5],[1,0.5]];portConstraint=eastwest;" vertex="1" parent="dc0CeyLBmL446_oW5Jyz-36">
          <mxGeometry y="68" width="160" height="132" as="geometry" />
        </mxCell>
        <mxCell id="dc0CeyLBmL446_oW5Jyz-40" value="&lt;span style=&quot;font-weight: 700&quot;&gt;Instances&lt;/span&gt;" style="text;html=1;align=center;verticalAlign=middle;resizable=0;points=[];autosize=1;" vertex="1" parent="1">
          <mxGeometry x="40" y="700" width="70" height="20" as="geometry" />
        </mxCell>
        <mxCell id="dc0CeyLBmL446_oW5Jyz-41" value="head:Head" style="swimlane;fontStyle=1;align=center;verticalAlign=top;childLayout=stackLayout;horizontal=1;startSize=26;horizontalStack=0;resizeParent=1;resizeParentMax=0;resizeLast=0;collapsible=1;marginBottom=0;" vertex="1" parent="1">
          <mxGeometry x="40" y="720" width="160" height="80" as="geometry" />
        </mxCell>
        <mxCell id="dc0CeyLBmL446_oW5Jyz-42" value="-color:String=&quot;white&quot;&#xa;-shape:String=&quot;round&quot;" style="text;strokeColor=none;fillColor=none;align=left;verticalAlign=top;spacingLeft=4;spacingRight=4;overflow=hidden;rotatable=0;points=[[0,0.5],[1,0.5]];portConstraint=eastwest;" vertex="1" parent="dc0CeyLBmL446_oW5Jyz-41">
          <mxGeometry y="26" width="160" height="54" as="geometry" />
        </mxCell>
        <mxCell id="dc0CeyLBmL446_oW5Jyz-46" value="leg:Leg" style="swimlane;fontStyle=1;align=center;verticalAlign=top;childLayout=stackLayout;horizontal=1;startSize=26;horizontalStack=0;resizeParent=1;resizeParentMax=0;resizeLast=0;collapsible=1;marginBottom=0;" vertex="1" parent="1">
          <mxGeometry x="240" y="720" width="160" height="80" as="geometry" />
        </mxCell>
        <mxCell id="dc0CeyLBmL446_oW5Jyz-47" value="-length:int=123&#xa;-toes:int=5" style="text;strokeColor=none;fillColor=none;align=left;verticalAlign=top;spacingLeft=4;spacingRight=4;overflow=hidden;rotatable=0;points=[[0,0.5],[1,0.5]];portConstraint=eastwest;" vertex="1" parent="dc0CeyLBmL446_oW5Jyz-46">
          <mxGeometry y="26" width="160" height="54" as="geometry" />
        </mxCell>
        <mxCell id="dc0CeyLBmL446_oW5Jyz-50" value="hand:Hand" style="swimlane;fontStyle=1;align=center;verticalAlign=top;childLayout=stackLayout;horizontal=1;startSize=26;horizontalStack=0;resizeParent=1;resizeParentMax=0;resizeLast=0;collapsible=1;marginBottom=0;" vertex="1" parent="1">
          <mxGeometry x="440" y="720" width="160" height="80" as="geometry" />
        </mxCell>
        <mxCell id="dc0CeyLBmL446_oW5Jyz-51" value="-skin:String=&quot;white&quot;&#xa;-fingers:int=5" style="text;strokeColor=none;fillColor=none;align=left;verticalAlign=top;spacingLeft=4;spacingRight=4;overflow=hidden;rotatable=0;points=[[0,0.5],[1,0.5]];portConstraint=eastwest;" vertex="1" parent="dc0CeyLBmL446_oW5Jyz-50">
          <mxGeometry y="26" width="160" height="54" as="geometry" />
        </mxCell>
      </root>
    </mxGraphModel>
  </diagram>
</mxfile>
